<?xml version="1.0" standalone="no"?>
<!DOCTYPE svg PUBLIC "-//W3C//DTD SVG 20010904//EN"
 "http://www.w3.org/TR/2001/REC-SVG-20010904/DTD/svg10.dtd">
<svg version="1.0" xmlns="http://www.w3.org/2000/svg"
 width="320.000000pt" height="320.000000pt" viewBox="0 0 320.000000 320.000000"
 preserveAspectRatio="xMidYMid meet">
<metadata>
Created by potrace 1.16, written by Peter Selinger 2001-2019
</metadata>
<g transform="translate(0.000000,320.000000) scale(0.100000,-0.100000)"
fill="#000000" stroke="none">
<path d="M1278 2839 c-172 -199 -450 -520 -617 -713 -167 -193 -383 -443 -480
-554 -97 -112 -177 -210 -179 -218 -3 -12 77 -14 537 -14 l541 0 0 -670 0
-670 555 0 555 0 0 670 0 670 506 0 c430 0 505 2 502 14 -2 8 -82 106 -179
218 -97 111 -313 361 -480 554 -822 950 -930 1074 -939 1074 -5 0 -150 -163
-322 -361z"/>
</g>
</svg>
